<svg xmlns="http://www.w3.org/2000/svg" width="662.584" height="563.481" viewBox="0 0 662.584 563.481"><g transform="translate(-155.755 -1341.659)"><rect width="54.925" height="0.415" transform="translate(763.414 1856.94)" fill="#ebebeb"/><rect width="117.415" height="0.415" transform="translate(625.119 1856.94)" fill="#ebebeb"/><rect width="31.826" height="0.415" transform="translate(528.543 1841.542)" fill="#ebebeb"/><rect width="56.862" height="0.415" transform="translate(159.28 1844.328)" fill="#ebebeb"/><rect width="103.388" height="0.415" transform="translate(230.906 1844.328)" fill="#ebebeb"/><rect width="61.046" height="0.415" transform="translate(384.594 1851.329)" fill="#ebebeb"/><rect width="30.69" height="223.145" transform="translate(661.808 1820.941) rotate(180)" fill="#f0f0f0"/><rect width="338.125" height="9.308" transform="translate(655.915 1830.249) rotate(180)" fill="#f0f0f0"/><rect width="319.221" height="223.145" transform="translate(311.897 1597.796)" fill="#f5f5f5"/><rect width="30.69" height="8.123" transform="translate(661.808 1597.796) rotate(180)" fill="#e6e6e6"/><rect width="319.221" height="8.123" transform="translate(311.897 1589.673)" fill="#f0f0f0"/><path d="M-79.209,302.743H-376.362V252.5H-79.209ZM-374.3,300.68H-81.271V254.564H-374.3Z" transform="translate(699.293 1362.346)" fill="#e0e0e0"/><path d="M-79.209,416.711H-376.362V290.228H-79.209ZM-374.3,414.648H-81.271V292.291H-374.3Z" transform="translate(699.293 1387.179)" fill="#e0e0e0"/><rect width="217.081" height="6.607" transform="translate(580.048 1622.485) rotate(180)" fill="#e0e0e0"/><rect width="217.081" height="6.607" transform="translate(580.048 1685.045) rotate(180)" fill="#e0e0e0"/><path d="M-105.632,532.89h0a2.465,2.465,0,0,1-2.458-2.458v-383.2a2.465,2.465,0,0,1,2.458-2.458h0a2.464,2.464,0,0,1,2.456,2.458v383.2A2.464,2.464,0,0,1-105.632,532.89Z" transform="translate(875.883 1291.437)" fill="#f5f5f5"/><path d="M4.063,0H19.285a4.063,4.063,0,0,1,4.063,4.063v7.782a0,0,0,0,1,0,0H0a0,0,0,0,1,0,0V4.063A4.063,4.063,0,0,1,4.063,0Z" transform="translate(758.576 1818.403)" fill="#f0f0f0"/><path d="M-135.372,195.563s1.212-46.889,47.7-46.889,47.7,46.889,47.7,46.889Z" transform="translate(857.925 1294.001)" fill="#e0e0e0"/><path d="M-447.439,532.89h0a2.463,2.463,0,0,1-2.456-2.458v-383.2a2.464,2.464,0,0,1,2.456-2.458h0a2.465,2.465,0,0,1,2.458,2.458v383.2A2.465,2.465,0,0,1-447.439,532.89Z" transform="translate(650.89 1291.437)" fill="#f5f5f5"/><path d="M4.063,0H19.285a4.063,4.063,0,0,1,4.063,4.063v7.782a0,0,0,0,1,0,0H0a0,0,0,0,1,0,0V4.063A4.063,4.063,0,0,1,4.063,0Z" transform="translate(191.777 1818.403)" fill="#f0f0f0"/><path d="M-477.177,195.563s1.212-46.889,47.7-46.889,47.7,46.889,47.7,46.889Z" transform="translate(632.932 1294.001)" fill="#e0e0e0"/><rect width="117.969" height="3.516" transform="translate(428.658 1586.157)" fill="#e0e0e0"/><path d="M-194.635,262.009H-312.6l11.355-67.537h117.969Z" transform="translate(741.262 1324.148)" fill="#e0e0e0"/><path d="M-195.956,262.009H-313.925l11.355-67.537H-184.6Z" transform="translate(740.393 1324.148)" fill="#ebebeb"/><path d="M-311.214,255.3l9.654-57.425a1.518,1.518,0,0,1,1.5-1.265h107.717a1.516,1.516,0,0,1,1.5,1.768l-9.654,57.425a1.515,1.515,0,0,1-1.5,1.265H-309.719A1.516,1.516,0,0,1-311.214,255.3Z" transform="translate(742.163 1325.553)" fill="#fafafa"/><rect width="117.969" height="3.516" transform="translate(401.967 1586.157)" fill="#f0f0f0"/><rect width="312.54" height="101.016" transform="translate(328.343 1341.659)" fill="#ebebeb"/><rect width="4.479" height="101.016" transform="translate(645.363 1442.675) rotate(180)" fill="#e0e0e0"/><rect width="285.17" height="73.646" transform="translate(342.028 1355.344)" fill="#fff"/><rect width="24.273" height="24.273" transform="translate(484.613 1375.003) rotate(45)" fill="#f5f5f5"/><rect width="24.273" height="24.273" transform="translate(438.534 1375.003) rotate(45)" fill="#f5f5f5"/><rect width="24.273" height="24.273" transform="translate(392.454 1375.003) rotate(45)" fill="#f5f5f5"/><rect width="24.273" height="24.273" transform="translate(530.692 1375.003) rotate(45)" fill="#f5f5f5"/><rect width="24.273" height="24.273" transform="translate(576.771 1375.003) rotate(45)" fill="#f5f5f5"/><g transform="translate(165.336 1867.586)"><ellipse cx="321.517" cy="18.777" rx="321.517" ry="18.777" fill="#f5f5f5"/></g><g transform="translate(368.051 1379.428)"><g transform="translate(8.172 5.804)"><path d="M-46.314,128.98a13.813,13.813,0,0,0-13.954-14.947H-289.829a16.209,16.209,0,0,0-15.937,14.947l-5.268,79.453-33.052,244.507c-1.116,8.255,4.671,14.946,12.926,14.946H-101.6a17.659,17.659,0,0,0,16.966-14.946L-51.58,208.434Z" transform="translate(344.225 -114.033)" fill="#407bff"/><path d="M-46.314,128.98a13.813,13.813,0,0,0-13.954-14.947H-289.829a16.209,16.209,0,0,0-15.937,14.947l-5.268,79.453-33.052,244.507c-1.116,8.255,4.671,14.946,12.926,14.946H-101.6a17.659,17.659,0,0,0,16.966-14.946L-51.58,208.434Z" transform="translate(344.225 -114.033)" fill="#163988" opacity="0.2"/></g><path d="M-106.528,430.414H-336.089c-8.255,0-14.042-6.691-12.926-14.946l33.052-244.507H-56.508L-89.562,415.468A17.659,17.659,0,0,1-106.528,430.414Z" transform="translate(349.153 -70.756)" fill="#567ed9"/><rect width="34.188" height="1.658" transform="translate(62.504 0)" fill="#407bff"/><path d="M-320.941,113.956l-.687-1.511a21.054,21.054,0,0,1,8.752-1.912v1.658A19.389,19.389,0,0,0-320.941,113.956Z" transform="translate(367.271 -110.533)" fill="#407bff"/><path d="M-78.371,114.033H-307.932A16.209,16.209,0,0,0-323.87,128.98l-5.268,79.453H-69.683l5.267-79.453A13.813,13.813,0,0,0-78.371,114.033Z" transform="translate(362.328 -108.229)" fill="#567ed9"/><path d="M-321.4,184.455l3.685-55.6a8.536,8.536,0,0,1,8.392-7.87H-88.672a7.273,7.273,0,0,1,7.348,7.87l-3.686,55.6a8.533,8.533,0,0,1-8.391,7.87H-314.053A7.273,7.273,0,0,1-321.4,184.455Z" transform="translate(367.409 -103.652)" fill="#fff" opacity="0.9"/><g transform="translate(240.681 25.278)" opacity="0.4"><path d="M-183.064,126.951l-2.506,2.333a.671.671,0,0,1-.461.182l-13.3,0a.674.674,0,0,1-.5-.217l-2.157-2.333a.677.677,0,0,1,.5-1.138l17.962,0A.678.678,0,0,1-183.064,126.951Z" transform="translate(205.225 -125.777)" fill="#407bff"/><path d="M-185.37,153.934l-17.962,0a.678.678,0,0,1-.463-1.172l2.5-2.335a.675.675,0,0,1,.463-.182l13.3,0a.683.683,0,0,1,.5.217l2.164,2.333A.678.678,0,0,1-185.37,153.934Z" transform="translate(204.011 -109.672)" fill="#407bff"/><path d="M-184.575,140.322l-1.288,1.2a.68.68,0,0,1-.461.181l-15.563,0a.676.676,0,0,1-.677-.726l.169-2.335a.68.68,0,0,1,.677-.628l15.632,0a.678.678,0,0,1,.5.219l1.05,1.136A.678.678,0,0,1-184.575,140.322Z" transform="translate(204.963 -117.725)" fill="#407bff"/><path d="M-188.525,140.456l-1.313,18.007a.677.677,0,0,1-1.174.41l-2.149-2.333a.675.675,0,0,1-.177-.507l.972-13.347a.682.682,0,0,1,.214-.446l2.489-2.327A.678.678,0,0,1-188.525,140.456Z" transform="translate(211.035 -116.594)" fill="#407bff"/><path d="M-187.589,127.612l-1.312,18.007a.679.679,0,0,1-1.176.41l-2.149-2.333a.683.683,0,0,1-.177-.509l.973-13.346a.673.673,0,0,1,.212-.446l2.489-2.327A.678.678,0,0,1-187.589,127.612Z" transform="translate(211.651 -125.049)" fill="#407bff"/></g><path d="M-207.988,157.867h0a2.507,2.507,0,0,1,2.461-2.3h28.159a2.37,2.37,0,0,1,2.39,2.554l0,0a2.5,2.5,0,0,1-2.459,2.3H-205.6A2.368,2.368,0,0,1-207.988,157.867Z" transform="translate(442.071 -80.891)" fill="#407bff" opacity="0.4"/><path d="M-229.248,157.867h0a2.507,2.507,0,0,1,2.461-2.3h28.159a2.369,2.369,0,0,1,2.39,2.554v0a2.508,2.508,0,0,1-2.461,2.3h-28.159A2.368,2.368,0,0,1-229.248,157.867Z" transform="translate(428.077 -80.891)" fill="#407bff" opacity="0.4"/><path d="M-250.508,157.867h0a2.509,2.509,0,0,1,2.461-2.3h28.159a2.369,2.369,0,0,1,2.39,2.554v0a2.508,2.508,0,0,1-2.461,2.3h-28.159A2.369,2.369,0,0,1-250.508,157.867Z" transform="translate(414.083 -80.891)" fill="#407bff" opacity="0.4"/><path d="M-271.768,157.867h0a2.509,2.509,0,0,1,2.461-2.3h28.159a2.369,2.369,0,0,1,2.39,2.554v0a2.506,2.506,0,0,1-2.461,2.3h-28.157A2.37,2.37,0,0,1-271.768,157.867Z" transform="translate(400.088 -80.891)" fill="#407bff" opacity="0.4"/><path d="M-318.682,273.488l10.374-76.739a10.87,10.87,0,0,1,10.44-9.2h76.739a7.856,7.856,0,0,1,7.955,9.2l-10.374,76.739a10.868,10.868,0,0,1-10.44,9.2h-76.739A7.855,7.855,0,0,1-318.682,273.488Z" transform="translate(369.155 -59.836)" fill="#263238" opacity="0.1"/><path d="M-252.77,273.488l10.374-76.739a10.87,10.87,0,0,1,10.44-9.2h76.739a7.855,7.855,0,0,1,7.953,9.2l-10.372,76.739a10.87,10.87,0,0,1-10.44,9.2h-76.739A7.854,7.854,0,0,1-252.77,273.488Z" transform="translate(412.541 -59.836)" fill="#263238" opacity="0.1"/><path d="M-327.591,339.4l10.372-76.739a10.868,10.868,0,0,1,10.44-9.2h76.739a7.854,7.854,0,0,1,7.955,9.2L-232.459,339.4a10.868,10.868,0,0,1-10.44,9.2h-76.739A7.854,7.854,0,0,1-327.591,339.4Z" transform="translate(363.29 -16.449)" fill="#263238" opacity="0.1"/><path d="M-261.68,339.4l10.374-76.739a10.868,10.868,0,0,1,10.44-9.2h76.739a7.854,7.854,0,0,1,7.953,9.2L-166.547,339.4a10.868,10.868,0,0,1-10.44,9.2h-76.739A7.855,7.855,0,0,1-261.68,339.4Z" transform="translate(406.676 -16.449)" fill="#263238" opacity="0.1"/><g transform="translate(45.282 127.715)"><path d="M-321.761,273.488l10.372-76.739a10.87,10.87,0,0,1,10.44-9.2h76.739a7.856,7.856,0,0,1,7.955,9.2l-10.374,76.739a10.868,10.868,0,0,1-10.44,9.2h-76.739A7.854,7.854,0,0,1-321.761,273.488Z" transform="translate(321.846 -187.551)" fill="#407bff"/><path d="M-321.761,273.488l10.372-76.739a10.87,10.87,0,0,1,10.44-9.2h76.739a7.856,7.856,0,0,1,7.955,9.2l-10.374,76.739a10.868,10.868,0,0,1-10.44,9.2h-76.739A7.854,7.854,0,0,1-321.761,273.488Z" transform="translate(321.846 -187.551)" fill="#fff" opacity="0.2"/></g><g transform="translate(154.579 127.715)"><path d="M-255.85,273.488l10.374-76.739a10.87,10.87,0,0,1,10.44-9.2H-158.3a7.855,7.855,0,0,1,7.953,9.2l-10.372,76.739a10.87,10.87,0,0,1-10.44,9.2H-247.9A7.854,7.854,0,0,1-255.85,273.488Z" transform="translate(255.935 -187.551)" fill="#407bff"/><path d="M-255.85,273.488l10.374-76.739a10.87,10.87,0,0,1,10.44-9.2H-158.3a7.855,7.855,0,0,1,7.953,9.2l-10.372,76.739a10.87,10.87,0,0,1-10.44,9.2H-247.9A7.854,7.854,0,0,1-255.85,273.488Z" transform="translate(255.935 -187.551)" fill="#fff" opacity="0.2"/></g><g transform="translate(30.507 237.014)"><path d="M-330.671,339.4-320.3,262.66a10.87,10.87,0,0,1,10.44-9.2h76.739a7.854,7.854,0,0,1,7.955,9.2L-235.539,339.4a10.868,10.868,0,0,1-10.44,9.2h-76.739A7.854,7.854,0,0,1-330.671,339.4Z" transform="translate(330.756 -253.463)" fill="#407bff"/><path d="M-330.671,339.4-320.3,262.66a10.87,10.87,0,0,1,10.44-9.2h76.739a7.854,7.854,0,0,1,7.955,9.2L-235.539,339.4a10.868,10.868,0,0,1-10.44,9.2h-76.739A7.854,7.854,0,0,1-330.671,339.4Z" transform="translate(330.756 -253.463)" fill="#fff" opacity="0.2"/></g><g transform="translate(139.804 237.014)"><path d="M-264.76,339.4l10.374-76.739a10.868,10.868,0,0,1,10.44-9.2h76.739a7.854,7.854,0,0,1,7.953,9.2L-169.627,339.4a10.868,10.868,0,0,1-10.44,9.2h-76.739A7.855,7.855,0,0,1-264.76,339.4Z" transform="translate(264.845 -253.463)" fill="#407bff"/><path d="M-264.76,339.4l10.374-76.739a10.868,10.868,0,0,1,10.44-9.2h76.739a7.854,7.854,0,0,1,7.953,9.2L-169.627,339.4a10.868,10.868,0,0,1-10.44,9.2h-76.739A7.855,7.855,0,0,1-264.76,339.4Z" transform="translate(264.845 -253.463)" fill="#fff" opacity="0.2"/></g><g transform="translate(55.825 143.354)"><path d="M-289.391,260.84h0a7.887,7.887,0,0,1-7.965-9.21l6.142-45.438a10.918,10.918,0,0,1,10.455-9.21h0a7.885,7.885,0,0,1,7.965,9.21l-6.142,45.438A10.92,10.92,0,0,1-289.391,260.84Z" transform="translate(327.369 -196.982)" fill="#fff"/><path d="M-309.2,219.892h0a10.918,10.918,0,0,1,10.455-9.21h45.436a7.886,7.886,0,0,1,7.966,9.21h0A10.918,10.918,0,0,1-255.8,229.1h-45.438A7.885,7.885,0,0,1-309.2,219.892Z" transform="translate(319.57 -187.964)" fill="#fff"/><path d="M-313.6,314.753h0c-3.1-3.582-2.3-9.444,1.761-13.026l36.472-32.129c4.066-3.582,9.928-3.582,13.026,0h0c3.1,3.582,2.3,9.442-1.761,13.024l-36.472,32.13C-304.638,318.335-310.5,318.335-313.6,314.753Z" transform="translate(315.488 -150.95)" fill="#fff"/><path d="M-309.217,269.6h0c4.066-3.582,9.926-3.582,13.024,0l27.787,32.129c3.1,3.582,2.3,9.444-1.761,13.026h0c-4.066,3.582-9.928,3.582-13.026,0l-27.786-32.13C-314.076,279.041-313.283,273.181-309.217,269.6Z" transform="translate(317.212 -150.95)" fill="#fff"/><path d="M-243.293,219.892h0a10.918,10.918,0,0,1,10.455-9.21H-187.4a7.885,7.885,0,0,1,7.965,9.21h0a10.918,10.918,0,0,1-10.455,9.21h-45.438A7.886,7.886,0,0,1-243.293,219.892Z" transform="translate(362.956 -187.964)" fill="#fff"/><path d="M-251.036,277.17h0a10.916,10.916,0,0,1,10.454-9.21h45.438a7.885,7.885,0,0,1,7.965,9.21h0a10.918,10.918,0,0,1-10.454,9.21H-243.07A7.888,7.888,0,0,1-251.036,277.17Z" transform="translate(357.859 -150.261)" fill="#fff"/><path d="M-253.37,294.438h0a10.918,10.918,0,0,1,10.455-9.21h45.438a7.885,7.885,0,0,1,7.965,9.21h0a10.92,10.92,0,0,1-10.455,9.21h-45.438A7.887,7.887,0,0,1-253.37,294.438Z" transform="translate(356.323 -138.894)" fill="#fff"/></g></g><g transform="translate(226.655 1404.701)"><path d="M-380.519,183.216c-2.981,5.529-6.051,11.5-8.853,17.335-2.862,5.864-5.5,11.8-7.825,17.755-.605,1.486-1.106,2.978-1.668,4.471a7.956,7.956,0,0,0-.569,2.416,16.847,16.847,0,0,0,1.27,6.872c1.948,5.1,5.6,10.651,9.371,15.478l-5.648,6.693a49.185,49.185,0,0,1-4.549-3.275,51.5,51.5,0,0,1-4.164-3.66,46.039,46.039,0,0,1-7.271-8.988,29.176,29.176,0,0,1-4.34-12.465,22.2,22.2,0,0,1,.6-7.615c.476-1.725.909-3.487,1.429-5.189a172.683,172.683,0,0,1,7.353-19.861c1.423-3.2,2.879-6.379,4.486-9.485,1.617-3.139,3.162-6.15,5.073-9.331Z" transform="translate(447.293 -93.787)" fill="#ff8b7b"/><path d="M-398.338,217.331l8.339,2.181-6.16,11.987s-6.167-2.34-7.706-7.776Z" transform="translate(454.534 -65.507)" fill="#ff8b7b"/><path d="M-381.633,222.437l-7.416,9.4-10.168-1.2,6.159-11.987Z" transform="translate(457.593 -64.641)" fill="#ff8b7b"/><path d="M-370.552,142.322c.187.922.827,1.569,1.431,1.446s.939-.968.751-1.89-.828-1.57-1.429-1.448S-370.74,141.4-370.552,142.322Z" transform="translate(476.428 -116.136)" fill="#263238"/><path d="M-370.125,142.522s3.177,4.892,6.008,6.99c-1.322,1.854-4.237,1.721-4.237,1.721Z" transform="translate(476.743 -114.75)" fill="#ff5652"/><path d="M-366.809,152.72c-2.7,0-5.383-2.952-6.205-7a10.6,10.6,0,0,1,.381-5.94,4.707,4.707,0,0,1,3.295-3.146,4.708,4.708,0,0,1,4.262,1.61,10.6,10.6,0,0,1,2.67,5.32,10.581,10.581,0,0,1-.383,5.94,4.7,4.7,0,0,1-3.295,3.146A3.677,3.677,0,0,1-366.809,152.72Zm-1.791-15.747a3.336,3.336,0,0,0-.655.065,4.315,4.315,0,0,0-2.993,2.892,10.2,10.2,0,0,0-.362,5.7c.851,4.19,3.728,7.167,6.444,6.606a4.315,4.315,0,0,0,2.992-2.894,10.182,10.182,0,0,0,.363-5.7,10.2,10.2,0,0,0-2.56-5.112A4.637,4.637,0,0,0-368.6,136.973Z" transform="translate(474.678 -118.676)" fill="#263238"/><path d="M-317.247,200.093l10.633-2.254,1.376,14.433s-9.183,1.754-13.584-5.51Z" transform="translate(510.514 -78.337)" fill="#ff8b7b"/><path d="M-301.409,201.075l-.679,10.524-8,.673-1.376-14.433Z" transform="translate(515.359 -78.337)" fill="#ff8b7b"/><path d="M-373.017,140a.545.545,0,0,1-.375-.148.549.549,0,0,1-.03-.779,5.479,5.479,0,0,1,4.7-1.829.555.555,0,0,1,.453.638.556.556,0,0,1-.635.451h0a4.382,4.382,0,0,0-3.706,1.489A.552.552,0,0,1-373.017,140Z" transform="translate(474.476 -118.249)" fill="#263238"/><path d="M-384.707,151.683c1.672,8.533,2.681,20.355-3.288,26.049,0,0,2.333,8.656,18.188,8.656,17.435,0,8.387-7.6,8.387-7.6-7.247-2.25-7.184-10.505-5.525-17.135Z" transform="translate(464.98 -108.719)" fill="#ff8b7b"/><path d="M-375.214,167.786c3.915-2.809,9.712-6.126,10.916-2.671.726,2.084,1.023,12.206-3,11.452C-373.257,175.45-375.214,167.786-375.214,167.786Z" transform="translate(473.394 -100.851)" fill="#263238"/><path d="M-389.519,175.555c-1.552-2.2-1.489-9.145.167-10.371,2.676-1.98,14.123-2.434,29.543,1.113-1.66,6.729,1.9,10.256,1.9,10.256Z" transform="translate(463.239 -100.835)" fill="#407bff"/><path d="M-420,409.217c1.169.254,2.34.32,2.9-.159a1.128,1.128,0,0,0,.267-1.284,1.279,1.279,0,0,0-.711-.812c-1.575-.751-5.194.723-5.348.786a.279.279,0,0,0-.171.247.275.275,0,0,0,.156.257A14.682,14.682,0,0,0-420,409.217Zm1.9-1.864a1.587,1.587,0,0,1,.325.106.746.746,0,0,1,.42.473c.148.5-.036.653-.1.7-.627.534-2.955.041-4.6-.615A9.11,9.11,0,0,1-418.105,407.353Z" transform="translate(441.898 59.178)" fill="#407bff"/><path d="M-422.845,409.532a.271.271,0,0,0,.136,0c1.32-.385,4.141-2.39,4.175-3.711a.9.9,0,0,0-.708-.894,1.5,1.5,0,0,0-1.224.1c-1.559.794-2.544,4.026-2.585,4.162a.277.277,0,0,0,.07.275A.283.283,0,0,0-422.845,409.532Zm3.3-4.122a1.091,1.091,0,0,1,.121.033c.342.119.337.287.335.358-.018.781-1.88,2.355-3.247,2.991.342-.934,1.121-2.771,2.119-3.282A.982.982,0,0,1-419.543,405.41Z" transform="translate(441.898 57.918)" fill="#407bff"/><path d="M-367.779,410.532c1.5,0,2.943-.206,3.428-.879a1.044,1.044,0,0,0-.023-1.207,1.37,1.37,0,0,0-.876-.645c-1.94-.529-6.016,1.794-6.189,1.894a.277.277,0,0,0-.136.284.277.277,0,0,0,.219.227A20.534,20.534,0,0,0-367.779,410.532Zm1.851-2.262a2.059,2.059,0,0,1,.534.063.831.831,0,0,1,.541.386c.2.343.124.514.055.612-.544.753-3.491.771-5.66.464A12.471,12.471,0,0,1-365.928,408.27Z" transform="translate(475.787 59.819)" fill="#407bff"/><path d="M-371.3,411.319a.273.273,0,0,0,.113-.025c1.408-.632,4.2-3.154,3.983-4.472-.05-.31-.27-.695-1.028-.773a2.014,2.014,0,0,0-1.532.474c-1.484,1.219-1.8,4.36-1.811,4.494a.272.272,0,0,0,.114.25A.284.284,0,0,0-371.3,411.319Zm2.846-4.729a1.4,1.4,0,0,1,.166.01c.5.05.529.245.539.31.128.791-1.768,2.773-3.2,3.637.149-.917.565-2.8,1.54-3.6A1.469,1.469,0,0,1-368.456,406.59Z" transform="translate(475.787 58.71)" fill="#407bff"/><path d="M-379.146,419.778h11.664l1.162-27.011h-11.664Z" transform="translate(470.806 49.975)" fill="#ff8b7b"/><path d="M-430.771,415.787l11.4,2.468,11.445-25.158-11.4-2.468Z" transform="translate(436.823 48.566)" fill="#ff8b7b"/><path d="M-415.874,407.708l-12.807-2.773a1.017,1.017,0,0,0-1.139.569l-4.446,9.644a1.716,1.716,0,0,0,1.23,2.39c4.487.89,6.716,1.1,12.349,2.318,3.464.75,11.286,2.655,16.072,3.691,4.68,1.013,6.434-3.56,4.568-4.413-8.367-3.822-11.865-7.189-14.128-10.326A2.836,2.836,0,0,0-415.874,407.708Z" transform="translate(434.421 57.969)" fill="#263238"/><path d="M-365.776,408.242h-12.739a1.016,1.016,0,0,0-.992.8l-2.3,10.367a1.7,1.7,0,0,0,1.678,2.074c4.6-.078,11.235-.347,17.009-.347,6.754,0,12.584.368,20.5.368,4.789,0,6.117-4.84,4.113-5.28-9.124-1.995-16.574-2.209-24.459-7.071A5.393,5.393,0,0,0-365.776,408.242Z" transform="translate(469.023 60.161)" fill="#263238"/><g transform="translate(36.158 71.336)"><path d="M-392.672,169.107c-10.931,2.507-19.944,30.414-19.944,30.414l21.952,16.732s8.057-7.6,11.643-21.556C-375.264,180.069-381.494,166.545-392.672,169.107Z" transform="translate(412.616 -168.793)" fill="#407bff"/><path d="M-392.672,169.107c-10.931,2.507-19.944,30.414-19.944,30.414l21.952,16.732s8.057-7.6,11.643-21.556C-375.264,180.069-381.494,166.545-392.672,169.107Z" transform="translate(412.616 -168.793)" fill="#fff" opacity="0.4"/></g><path d="M-356.243,177.011l18.42,16.946q4.594,4.236,9.22,8.366c3.055,2.751,6.175,5.512,9.134,7.9l-2.564-1.376c1.426.519,2.92,1.036,4.489,1.456s3.209.768,4.875,1.1c3.351.6,6.849,1.046,10.415,1.333,3.569.305,7.208.5,10.885.6,3.65.129,7.46.181,11.049.207l1.743,8.583a87.381,87.381,0,0,1-11.609,3.384,100.58,100.58,0,0,1-11.961,1.831,83.28,83.28,0,0,1-12.427.167,58.02,58.02,0,0,1-12.978-2.225l-1.257-.37-1.307-1.007c-3.64-2.8-6.872-5.544-10.129-8.333q-4.835-4.2-9.555-8.435c-6.258-5.711-12.475-11.381-18.574-17.271Z" transform="translate(477.897 -92.047)" fill="#ff8b7b"/><path d="M-391.631,181.358c-5.938,5.875-7.875,16.576-8.334,25.88l.968.746s8.066-7.6,11.653-21.561c.222-.874.413-1.748.572-2.605Z" transform="translate(457.101 -89.186)" opacity="0.2"/><g transform="translate(56.101 68.624)"><path d="M-331.508,181.879c2.383,12.6,3.875,38.476-3.046,89.72h-62.385c-.429-9.576,5.587-56.293-3.65-101.415a162.729,162.729,0,0,1,20.884-2.637c7.971-.385,19.513-.638,26.52,0,2.925.269,5.8.69,8.354,1.143A16.509,16.509,0,0,1-331.508,181.879Z" transform="translate(400.589 -167.157)" fill="#407bff"/><path d="M-331.508,181.879c2.383,12.6,3.875,38.476-3.046,89.72h-62.385c-.429-9.576,5.587-56.293-3.65-101.415a162.729,162.729,0,0,1,20.884-2.637c7.971-.385,19.513-.638,26.52,0,2.925.269,5.8.69,8.354,1.143A16.509,16.509,0,0,1-331.508,181.879Z" transform="translate(400.589 -167.157)" fill="#fff" opacity="0.4"/></g><path d="M-364.668,188.338l11.273-2.7c.348,6.827.381,15.291-.128,25.753C-358.715,205.484-365.335,196.276-364.668,188.338Z" transform="translate(480.304 -86.368)" opacity="0.2"/><g transform="translate(11.586 439.201)"><path d="M-366.544,392.772l-.6,13.923H-378.81l.6-13.923Z" transform="translate(459.44 -389.223)" opacity="0.2"/><path d="M-421.528,390.632l11.4,2.469-5.905,12.967-11.4-2.469Z" transform="translate(427.434 -390.632)" opacity="0.2"/></g><path d="M-389.132,152.119c3,11.182,4.182,17.878,11.082,22.527,10.379,6.993,23.3-1.033,23.7-12.885.365-10.666-4.6-27.159-16.6-29.412A15.788,15.788,0,0,0-389.132,152.119Z" transform="translate(463.861 -121.638)" fill="#ff8b7b"/><path d="M-357.172,157.1c5.233-.738,3.738-6.8,1.773-9.756,0,0,11.687-14.014-1.773-19.678s-10.143,3.177-10.143,3.177-10.5-7.877-19.62-1.519-1.245,9.12-1.245,9.12-16.612,4.884-9.964,13.289,13.48,7.545,13.48,7.545-13.742,5.421-3.239,11.5,14.35,6.361,14.35,6.361h0a11.905,11.905,0,0,0,12.868-8.381Z" transform="translate(457.265 -125.774)" fill="#263238"/><path d="M-376.771,146.617a13.084,13.084,0,0,0,3.277,7.736c2.544,2.8,5.2,1.058,5.646-2.355.406-3.071-.428-8.228-3.537-9.774C-374.448,140.7-376.977,143.157-376.771,146.617Z" transform="translate(472.361 -115.248)" fill="#ff8b7b"/><path d="M-337.588,230.14s-13.238,89.138-20.5,122.53c-7.958,36.569-50.628,157.557-50.628,157.557l-20.879-4.52s29.837-98.6,36.516-149.72c5.131-39.271,15.239-125.846,15.239-125.846Z" transform="translate(437.595 -57.075)" fill="#263238"/><path d="M-403.123,396.667c.09.018-3.892,7.55-3.892,7.55l-23.491-5.086,1.98-7.063Z" transform="translate(436.997 49.515)" fill="#407bff"/><path d="M-374,249.339c-15.306,3-13.687,60.078-11.845,89.436,4.414-20.751,10.876-60.682,15.289-89.023A5.231,5.231,0,0,0-374,249.339Z" transform="translate(465.639 -44.515)" opacity="0.3"/><path d="M-344.488,230.14s1.607,87.207.338,122.777c-1.32,37-14.243,158.134-14.243,158.134h-19.758s-.726-118.976-1.605-155.312c-.959-39.611-5.741-125.6-5.741-125.6Z" transform="translate(466.625 -57.075)" fill="#263238"/><path d="M-356.618,394.8c.091,0-1.114,8.2-1.114,8.2h-24.035l-.65-7.321Z" transform="translate(468.652 51.31)" fill="#407bff"/><g transform="translate(100.094 70.241)"><path d="M-373.419,185.062c-5.593,15.072,27.263,32.825,27.263,32.825l14.224-18.287s-9.489-18.889-21.134-27.4C-367.452,161.679-369.162,173.589-373.419,185.062Z" transform="translate(374.06 -168.133)" fill="#407bff"/><path d="M-373.419,185.062c-5.593,15.072,27.263,32.825,27.263,32.825l14.224-18.287s-9.489-18.889-21.134-27.4C-367.452,161.679-369.162,173.589-373.419,185.062Z" transform="translate(374.06 -168.133)" fill="#fff" opacity="0.4"/></g><ellipse cx="4.076" cy="3.063" rx="4.076" ry="3.063" transform="translate(191.057 120.183)" fill="#263238"/><path d="M-317.375,209.537a.824.824,0,0,1-.635-.3.83.83,0,0,1,.095-1.164c.106-.093,2.227-2.03,1.315-6.529a.833.833,0,0,1,.648-.978.836.836,0,0,1,.978.65c1.121,5.53-1.744,8.018-1.867,8.122A.825.825,0,0,1-317.375,209.537Z" transform="translate(510.92 -76.548)" fill="#263238"/><path d="M-312.118,200.866c0,1.254-1.483,2.268-3.313,2.268s-3.313-1.015-3.313-2.268,1.482-2.27,3.313-2.27S-312.118,199.611-312.118,200.866Z" transform="translate(510.565 -77.839)" fill="#fff" opacity="0.4"/><path d="M-353.578,167.5c-7.638,5.452-20.853,26.537-23.293,38.984a.413.413,0,0,1-.756.139,85.069,85.069,0,0,1-12.458-38.584.4.4,0,0,0-.438-.38,53.019,53.019,0,0,0-5.549.683.412.412,0,0,0-.307.421c.992,23.521,12.833,41.509,17.443,47.033a.366.366,0,0,1,.088.27c-1.021,18.662.33,52,.5,55.974a.408.408,0,0,0,.411.39h4.952a.4.4,0,0,0,.411-.424c-.221-3.826-1.778-32.794.023-56.551l0-.046c2.793-17.682,19.561-41.571,25.446-46.308a.4.4,0,0,0-.169-.71c-2.489-.547-5.353-.887-6.031-.963A.381.381,0,0,0-353.578,167.5Z" transform="translate(459.461 -98.356)" fill="#407bff"/></g></g></svg>