<svg xmlns="http://www.w3.org/2000/svg" width="1072.697" height="799.392" viewBox="0 0 1072.697 799.392"><g transform="translate(-847.652 -234.608)"><g transform="translate(1375.162 179.655)"><g transform="translate(-527.51 54.953)"><rect width="1072.697" height="0.536" transform="translate(0 702.499)" fill="#ebebeb"/><rect width="71.06" height="0.536" transform="translate(894.155 737.031)" fill="#ebebeb"/><rect width="151.908" height="0.536" transform="translate(715.234 737.031)" fill="#ebebeb"/><rect width="41.175" height="0.536" transform="translate(590.286 717.109)" fill="#ebebeb"/><rect width="73.566" height="0.536" transform="translate(112.545 720.714)" fill="#ebebeb"/><rect width="133.76" height="0.536" transform="translate(205.212 720.714)" fill="#ebebeb"/><rect width="78.98" height="0.536" transform="translate(404.049 729.772)" fill="#ebebeb"/><path d="M-62.784,661.771H-477.057A12.261,12.261,0,0,1-489.3,649.525V67.2a12.259,12.259,0,0,1,12.246-12.244H-62.784A12.259,12.259,0,0,1-50.54,67.2V649.525A12.26,12.26,0,0,1-62.784,661.771ZM-477.057,55.489A11.721,11.721,0,0,0-488.767,67.2V649.525a11.722,11.722,0,0,0,11.71,11.709H-62.784a11.722,11.722,0,0,0,11.707-11.709V67.2A11.722,11.722,0,0,0-62.784,55.489Z" transform="translate(571.272 -54.953)" fill="#ebebeb"/><path d="M153.51,661.771H-260.761A12.259,12.259,0,0,1-273,649.525V67.2a12.257,12.257,0,0,1,12.244-12.244H153.51A12.26,12.26,0,0,1,165.758,67.2V649.525A12.261,12.261,0,0,1,153.51,661.771ZM-260.761,55.489A11.721,11.721,0,0,0-272.469,67.2V649.525a11.721,11.721,0,0,0,11.707,11.709H153.51a11.723,11.723,0,0,0,11.712-11.709V67.2A11.723,11.723,0,0,0,153.51,55.489Z" transform="translate(819.018 -54.953)" fill="#ebebeb"/><g transform="translate(107.984 70.376)"><g transform="translate(202.012 320.873)"><rect width="39.706" height="288.698" transform="translate(452.704 299.207) rotate(180)" fill="#f0f0f0"/><rect width="437.456" height="12.043" transform="translate(445.08 311.25) rotate(180)" fill="#f0f0f0"/><rect width="412.999" height="288.698" transform="translate(0 10.509)" fill="#f5f5f5"/><rect width="39.706" height="10.509" transform="translate(452.704 10.509) rotate(180)" fill="#e6e6e6"/><rect width="412.999" height="10.509" fill="#f0f0f0"/><path d="M8.086,317.5H-376.362v-65H8.086Zm-381.777-2.669H5.417V255.17H-373.691Z" transform="translate(390.638 -219.932)" fill="#e0e0e0"/><path d="M8.086,453.868H-376.362V290.228H8.086ZM-373.691,451.2H5.417V292.9H-373.691Z" transform="translate(390.638 -176.72)" fill="#e0e0e0"/><rect width="280.853" height="8.548" transform="translate(346.926 42.451) rotate(180)" fill="#e0e0e0"/><rect width="280.853" height="8.548" transform="translate(346.926 123.389) rotate(180)" fill="#e0e0e0"/></g><g transform="translate(733.306 122.334)"><path d="M-104.911,646.905h0a3.189,3.189,0,0,1-3.179-3.179V147.957a3.189,3.189,0,0,1,3.179-3.179h0a3.187,3.187,0,0,1,3.177,3.179V643.726A3.187,3.187,0,0,1-104.911,646.905Z" transform="translate(166.621 -144.778)" fill="#f5f5f5"/><path d="M4.063,0H26.144a4.063,4.063,0,0,1,4.063,4.063V15.325a0,0,0,0,1,0,0H0a0,0,0,0,1,0,0V4.063A4.063,4.063,0,0,1,4.063,0Z" transform="translate(46.606 494.464)" fill="#f0f0f0"/><g transform="translate(0 8.358)"><path d="M-135.372,209.337s1.568-60.663,61.712-60.663,61.71,60.663,61.71,60.663Z" transform="translate(135.372 -148.674)" fill="#e0e0e0"/></g></g><g transform="translate(0 122.334)"><path d="M-446.718,646.905h0a3.187,3.187,0,0,1-3.177-3.179V147.957a3.187,3.187,0,0,1,3.177-3.179h0a3.189,3.189,0,0,1,3.179,3.179V643.726A3.189,3.189,0,0,1-446.718,646.905Z" transform="translate(508.426 -144.778)" fill="#f5f5f5"/><path d="M4.063,0H26.144a4.063,4.063,0,0,1,4.063,4.063V15.325a0,0,0,0,1,0,0H0a0,0,0,0,1,0,0V4.063A4.063,4.063,0,0,1,4.063,0Z" transform="translate(46.605 494.464)" fill="#f0f0f0"/><g transform="translate(0 8.358)"><path d="M-477.177,209.337s1.568-60.663,61.71-60.663,61.712,60.663,61.712,60.663Z" transform="translate(477.177 -148.674)" fill="#e0e0e0"/></g></g><g transform="translate(318.542 228.947)"><rect width="152.625" height="4.549" transform="translate(34.531 87.378)" fill="#e0e0e0"/><path d="M-159.979,281.85H-312.6l14.69-87.378H-145.29Z" transform="translate(347.135 -194.472)" fill="#e0e0e0"/><path d="M-161.3,281.85H-313.925l14.69-87.378H-146.61Z" transform="translate(345.622 -194.472)" fill="#ebebeb"/><path d="M-311.208,272.538l12.49-74.295a1.964,1.964,0,0,1,1.935-1.637h139.36a1.961,1.961,0,0,1,1.935,2.287l-12.49,74.295a1.96,1.96,0,0,1-1.935,1.637h-139.36A1.961,1.961,0,0,1-311.208,272.538Z" transform="translate(348.702 -192.028)" fill="#fafafa"/><rect width="152.624" height="4.549" transform="translate(0 87.378)" fill="#f0f0f0"/></g><g transform="translate(223.289)"><rect width="404.355" height="130.691" fill="#ebebeb"/><rect width="5.795" height="130.691" transform="translate(410.151 130.691) rotate(180)" fill="#e0e0e0"/><rect width="368.945" height="95.28" transform="translate(17.705 17.706)" fill="#fff"/><rect width="31.404" height="31.404" transform="translate(202.178 43.14) rotate(45)" fill="#f5f5f5"/><rect width="31.404" height="31.404" transform="translate(142.562 43.14) rotate(45)" fill="#f5f5f5"/><rect width="31.404" height="31.404" transform="translate(82.946 43.14) rotate(45)" fill="#f5f5f5"/><rect width="31.404" height="31.404" transform="translate(261.794 43.14) rotate(45)" fill="#f5f5f5"/><rect width="31.404" height="31.404" transform="translate(321.41 43.14) rotate(45)" fill="#f5f5f5"/></g></g></g><g transform="translate(-407.13 805.758)"><ellipse cx="415.969" cy="24.293" rx="415.969" ry="24.293" fill="#f5f5f5"/></g><g transform="translate(-144.864 174.194)"><g transform="translate(10.573 7.509)"><path d="M41.2,133.372A17.871,17.871,0,0,0,23.15,114.033h-297a20.971,20.971,0,0,0-20.619,19.339l-6.816,102.794L-344.047,552.5c-1.444,10.68,6.044,19.336,16.723,19.336h297c10.68,0,20.508-8.657,21.95-19.336L34.39,236.166Z" transform="translate(344.225 -114.033)" fill="#407bff"/><path d="M41.2,133.372A17.871,17.871,0,0,0,23.15,114.033h-297a20.971,20.971,0,0,0-20.619,19.339l-6.816,102.794L-344.047,552.5c-1.444,10.68,6.044,19.336,16.723,19.336h297c10.68,0,20.508-8.657,21.95-19.336L34.39,236.166Z" transform="translate(344.225 -114.033)" fill="#163988" opacity="0.2"/></g><path d="M-35.252,506.634h-297c-10.68,0-18.167-8.657-16.723-19.336l42.762-316.336H29.462L-13.3,487.3C-14.744,497.977-24.572,506.634-35.252,506.634Z" transform="translate(349.153 -41.319)" fill="#567ed9"/><rect width="44.232" height="2.145" transform="translate(80.866 0)" fill="#407bff"/><path d="M-320.74,114.961l-.888-1.954a27.239,27.239,0,0,1,11.323-2.474v2.145A25.085,25.085,0,0,0-320.74,114.961Z" transform="translate(380.68 -110.533)" fill="#407bff"/><path d="M-4.7,114.033h-297a20.971,20.971,0,0,0-20.619,19.339l-6.816,102.794H6.537L13.35,133.372A17.871,17.871,0,0,0-4.7,114.033Z" transform="translate(372.078 -106.524)" fill="#567ed9"/><path d="M-321.4,203.1l4.767-71.931a11.043,11.043,0,0,1,10.858-10.182H-20.3a9.41,9.41,0,0,1,9.506,10.182L-15.561,203.1a11.039,11.039,0,0,1-10.856,10.182H-311.89A9.41,9.41,0,0,1-321.4,203.1Z" transform="translate(380.92 -98.559)" fill="#fff" opacity="0.9"/><g transform="translate(311.386 32.704)" opacity="0.4"><path d="M-177.451,127.3l-3.242,3.019a.868.868,0,0,1-.6.236l-17.208,0a.872.872,0,0,1-.644-.281l-2.791-3.019a.876.876,0,0,1,.644-1.472l23.239,0A.877.877,0,0,1-177.451,127.3Z" transform="translate(206.123 -125.777)" fill="#407bff"/><path d="M-179.894,155.017l-23.239,0a.877.877,0,0,1-.6-1.517l3.231-3.021a.873.873,0,0,1,.6-.236l17.208,0a.884.884,0,0,1,.644.281l2.8,3.019A.877.877,0,0,1-179.894,155.017Z" transform="translate(204.011 -97.753)" fill="#407bff"/><path d="M-179.289,141l-1.667,1.549a.88.88,0,0,1-.6.234l-20.135,0a.875.875,0,0,1-.875-.94l.219-3.021a.88.88,0,0,1,.875-.813l20.225,0a.877.877,0,0,1,.644.283l1.358,1.47A.877.877,0,0,1-179.289,141Z" transform="translate(205.668 -111.765)" fill="#407bff"/><path d="M-187.111,140.67l-1.7,23.3a.876.876,0,0,1-1.519.53l-2.78-3.019a.873.873,0,0,1-.23-.656l1.257-17.268a.882.882,0,0,1,.277-.577l3.22-3.01A.877.877,0,0,1-187.111,140.67Z" transform="translate(216.233 -109.798)" fill="#407bff"/><path d="M-186.175,127.826l-1.7,23.3a.878.878,0,0,1-1.521.53l-2.78-3.019a.883.883,0,0,1-.23-.659l1.259-17.266a.87.87,0,0,1,.275-.577l3.22-3.01A.877.877,0,0,1-186.175,127.826Z" transform="translate(217.305 -124.509)" fill="#407bff"/></g><path d="M-207.986,158.544h0a3.243,3.243,0,0,1,3.184-2.98h36.431a3.066,3.066,0,0,1,3.091,3.3l0,0a3.241,3.241,0,0,1-3.182,2.978h-36.431A3.064,3.064,0,0,1-207.986,158.544Z" transform="translate(510.836 -58.955)" fill="#407bff" opacity="0.4"/><path d="M-229.246,158.544h0a3.243,3.243,0,0,1,3.184-2.98h36.431a3.065,3.065,0,0,1,3.092,3.3v0a3.244,3.244,0,0,1-3.184,2.978h-36.431A3.064,3.064,0,0,1-229.246,158.544Z" transform="translate(486.485 -58.955)" fill="#407bff" opacity="0.4"/><path d="M-250.506,158.544h0a3.246,3.246,0,0,1,3.184-2.98h36.431a3.065,3.065,0,0,1,3.091,3.3v0a3.244,3.244,0,0,1-3.184,2.978h-36.431A3.065,3.065,0,0,1-250.506,158.544Z" transform="translate(462.134 -58.955)" fill="#407bff" opacity="0.4"/><path d="M-271.766,158.544h0a3.246,3.246,0,0,1,3.184-2.98h36.431a3.065,3.065,0,0,1,3.091,3.3v0a3.243,3.243,0,0,1-3.184,2.978h-36.429A3.066,3.066,0,0,1-271.766,158.544Z" transform="translate(437.783 -58.955)" fill="#407bff" opacity="0.4"/><path d="M-318.657,298.734l13.422-99.282a14.063,14.063,0,0,1,13.507-11.9h99.282a10.164,10.164,0,0,1,10.291,11.9l-13.422,99.282a14.061,14.061,0,0,1-13.507,11.9h-99.282A10.162,10.162,0,0,1-318.657,298.734Z" transform="translate(383.957 -22.317)" fill="#263238" opacity="0.1"/><path d="M-252.745,298.734l13.422-99.282a14.063,14.063,0,0,1,13.507-11.9h99.282a10.163,10.163,0,0,1,10.289,11.9l-13.419,99.282a14.063,14.063,0,0,1-13.507,11.9h-99.282A10.161,10.161,0,0,1-252.745,298.734Z" transform="translate(459.452 -22.317)" fill="#263238" opacity="0.1"/><path d="M-327.566,364.644l13.419-99.282a14.061,14.061,0,0,1,13.507-11.9h99.282a10.161,10.161,0,0,1,10.291,11.9l-13.422,99.282a14.061,14.061,0,0,1-13.507,11.9h-99.282A10.161,10.161,0,0,1-327.566,364.644Z" transform="translate(373.753 53.178)" fill="#263238" opacity="0.1"/><path d="M-261.655,364.644l13.422-99.282a14.061,14.061,0,0,1,13.507-11.9h99.282a10.161,10.161,0,0,1,10.289,11.9l-13.419,99.282a14.061,14.061,0,0,1-13.507,11.9h-99.282A10.162,10.162,0,0,1-261.655,364.644Z" transform="translate(449.247 53.178)" fill="#263238" opacity="0.1"/><g transform="translate(58.584 165.234)"><path d="M-321.736,298.734l13.419-99.282a14.063,14.063,0,0,1,13.507-11.9h99.282a10.164,10.164,0,0,1,10.291,11.9l-13.422,99.282a14.061,14.061,0,0,1-13.507,11.9h-99.282A10.161,10.161,0,0,1-321.736,298.734Z" transform="translate(321.846 -187.551)" fill="#407bff"/><path d="M-321.736,298.734l13.419-99.282a14.063,14.063,0,0,1,13.507-11.9h99.282a10.164,10.164,0,0,1,10.291,11.9l-13.422,99.282a14.061,14.061,0,0,1-13.507,11.9h-99.282A10.161,10.161,0,0,1-321.736,298.734Z" transform="translate(321.846 -187.551)" fill="#fff" opacity="0.2"/></g><g transform="translate(199.989 165.234)"><path d="M-255.825,298.734l13.422-99.282a14.063,14.063,0,0,1,13.507-11.9h99.282a10.163,10.163,0,0,1,10.289,11.9l-13.419,99.282a14.063,14.063,0,0,1-13.507,11.9h-99.282A10.161,10.161,0,0,1-255.825,298.734Z" transform="translate(255.935 -187.551)" fill="#407bff"/><path d="M-255.825,298.734l13.422-99.282a14.063,14.063,0,0,1,13.507-11.9h99.282a10.163,10.163,0,0,1,10.289,11.9l-13.419,99.282a14.063,14.063,0,0,1-13.507,11.9h-99.282A10.161,10.161,0,0,1-255.825,298.734Z" transform="translate(255.935 -187.551)" fill="#fff" opacity="0.2"/></g><g transform="translate(39.469 306.641)"><path d="M-330.646,364.644l13.419-99.282a14.063,14.063,0,0,1,13.507-11.9h99.282a10.161,10.161,0,0,1,10.292,11.9l-13.422,99.282a14.061,14.061,0,0,1-13.507,11.9h-99.282A10.161,10.161,0,0,1-330.646,364.644Z" transform="translate(330.756 -253.463)" fill="#407bff"/><path d="M-330.646,364.644l13.419-99.282a14.063,14.063,0,0,1,13.507-11.9h99.282a10.161,10.161,0,0,1,10.292,11.9l-13.422,99.282a14.061,14.061,0,0,1-13.507,11.9h-99.282A10.161,10.161,0,0,1-330.646,364.644Z" transform="translate(330.756 -253.463)" fill="#fff" opacity="0.2"/></g><g transform="translate(180.874 306.641)"><path d="M-264.735,364.644l13.422-99.282a14.061,14.061,0,0,1,13.507-11.9h99.282a10.161,10.161,0,0,1,10.289,11.9l-13.419,99.282a14.061,14.061,0,0,1-13.507,11.9h-99.282A10.162,10.162,0,0,1-264.735,364.644Z" transform="translate(264.845 -253.463)" fill="#407bff"/><path d="M-264.735,364.644l13.422-99.282a14.061,14.061,0,0,1,13.507-11.9h99.282a10.161,10.161,0,0,1,10.289,11.9l-13.419,99.282a14.061,14.061,0,0,1-13.507,11.9h-99.282A10.162,10.162,0,0,1-264.735,364.644Z" transform="translate(264.845 -253.463)" fill="#fff" opacity="0.2"/></g><g transform="translate(72.224 185.467)"><path d="M-287.027,279.6h0a10.2,10.2,0,0,1-10.3-11.916l7.947-58.786a14.125,14.125,0,0,1,13.527-11.916h0a10.2,10.2,0,0,1,10.3,11.916l-7.947,58.786A14.127,14.127,0,0,1-287.027,279.6Z" transform="translate(336.161 -196.982)" fill="#fff"/><path d="M-309.179,222.6h0a14.125,14.125,0,0,1,13.527-11.915h58.784A10.2,10.2,0,0,1-226.562,222.6h0a14.125,14.125,0,0,1-13.527,11.916h-58.786A10.2,10.2,0,0,1-309.179,222.6Z" transform="translate(322.59 -181.29)" fill="#fff"/><path d="M-313.042,328.808h0c-4.008-4.634-2.982-12.218,2.278-16.852l47.186-41.567c5.26-4.634,12.844-4.634,16.852,0h0c4.008,4.634,2.982,12.216-2.278,16.85l-47.186,41.569C-301.45,333.442-309.034,333.442-313.042,328.808Z" transform="translate(315.488 -116.883)" fill="#fff"/><path d="M-308.145,270.388h0c5.26-4.634,12.842-4.634,16.85,0l35.95,41.567c4.008,4.634,2.982,12.218-2.278,16.852h0c-5.26,4.634-12.844,4.634-16.852,0l-35.948-41.569C-314.431,282.6-313.405,275.023-308.145,270.388Z" transform="translate(318.488 -116.883)" fill="#fff"/><path d="M-243.268,222.6h0a14.125,14.125,0,0,1,13.527-11.915h58.786a10.2,10.2,0,0,1,10.3,11.915h0a14.125,14.125,0,0,1-13.527,11.916h-58.786A10.2,10.2,0,0,1-243.268,222.6Z" transform="translate(398.084 -181.29)" fill="#fff"/><path d="M-251.011,279.876h0a14.123,14.123,0,0,1,13.525-11.916H-178.7a10.2,10.2,0,0,1,10.3,11.916h0a14.125,14.125,0,0,1-13.525,11.915H-240.7A10.205,10.205,0,0,1-251.011,279.876Z" transform="translate(389.216 -115.684)" fill="#fff"/><path d="M-253.345,297.144h0a14.125,14.125,0,0,1,13.527-11.916h58.786a10.2,10.2,0,0,1,10.3,11.916h0a14.127,14.127,0,0,1-13.527,11.915h-58.786A10.2,10.2,0,0,1-253.345,297.144Z" transform="translate(386.542 -95.906)" fill="#fff"/></g></g><g transform="translate(-327.797 206.892)"><path d="M-370.428,185.816c-3.857,7.153-7.828,14.876-11.454,22.428-3.7,7.586-7.118,15.264-10.124,22.971-.783,1.922-1.431,3.853-2.158,5.784a10.293,10.293,0,0,0-.736,3.126,21.8,21.8,0,0,0,1.643,8.891c2.521,6.6,7.245,13.78,12.124,20.025l-7.307,8.659a63.641,63.641,0,0,1-5.885-4.237,66.641,66.641,0,0,1-5.387-4.735,59.564,59.564,0,0,1-9.407-11.628,37.746,37.746,0,0,1-5.615-16.127,28.719,28.719,0,0,1,.774-9.852c.616-2.231,1.176-4.512,1.849-6.713a223.408,223.408,0,0,1,9.513-25.7c1.841-4.143,3.724-8.253,5.8-12.272,2.092-4.061,4.091-7.957,6.563-12.072Z" transform="translate(456.818 -70.115)" fill="#ff8b7b"/><path d="M-396.714,217.331l10.789,2.821-7.97,15.509s-7.979-3.027-9.97-10.06Z" transform="translate(469.419 -20.905)" fill="#ff8b7b"/><path d="M-376.468,223.55l-9.594,12.162-13.156-1.557,7.969-15.509Z" transform="translate(474.742 -19.399)" fill="#ff8b7b"/><path d="M-370.537,142.882c.242,1.193,1.07,2.03,1.852,1.871s1.214-1.253.972-2.446-1.071-2.032-1.849-1.873S-370.78,141.689-370.537,142.882Z" transform="translate(507.516 -109.004)" fill="#263238"/><path d="M-370.125,142.522s4.111,6.329,7.773,9.043c-1.71,2.4-5.481,2.227-5.481,2.227Z" transform="translate(508.065 -106.591)" fill="#ff5652"/><path d="M-364.913,157.468c-3.488,0-6.964-3.819-8.028-9.06a13.706,13.706,0,0,1,.493-7.685,6.09,6.09,0,0,1,4.263-4.07,6.091,6.091,0,0,1,5.514,2.083,13.719,13.719,0,0,1,3.454,6.882,13.689,13.689,0,0,1-.5,7.685,6.086,6.086,0,0,1-4.263,4.07A4.759,4.759,0,0,1-364.913,157.468Zm-2.317-20.373a4.316,4.316,0,0,0-.847.084,5.582,5.582,0,0,0-3.872,3.742,13.2,13.2,0,0,0-.468,7.38c1.1,5.421,4.823,9.272,8.337,8.547a5.583,5.583,0,0,0,3.87-3.744,13.173,13.173,0,0,0,.47-7.378,13.2,13.2,0,0,0-3.312-6.614A6,6,0,0,0-367.23,137.095Z" transform="translate(504.471 -113.423)" fill="#263238"/><path d="M-316.784,200.755l13.756-2.916,1.781,18.673s-11.881,2.27-17.575-7.129Z" transform="translate(566.827 -43.231)" fill="#ff8b7b"/><path d="M-298.456,202.026l-.879,13.615-10.345.871-1.78-18.673Z" transform="translate(575.259 -43.231)" fill="#ff8b7b"/><path d="M-372.854,140.821a.7.7,0,0,1-.485-.191.711.711,0,0,1-.039-1.008,7.089,7.089,0,0,1,6.08-2.366.718.718,0,0,1,.586.826.719.719,0,0,1-.822.584h0a5.67,5.67,0,0,0-4.795,1.927A.714.714,0,0,1-372.854,140.821Z" transform="translate(504.12 -112.68)" fill="#263238"/><path d="M-383.741,151.683c2.163,11.04,3.469,26.335-4.254,33.7,0,0,3.019,11.2,23.531,11.2,22.557,0,10.851-9.828,10.851-9.828-9.375-2.911-9.294-13.591-7.148-22.168Z" transform="translate(487.596 -96.098)" fill="#ff8b7b"/><path d="M-375.214,169c5.065-3.634,12.566-7.925,14.123-3.456.94,2.7,1.324,15.792-3.887,14.816C-372.682,178.921-375.214,169-375.214,169Z" transform="translate(502.236 -82.406)" fill="#263238"/><path d="M-389.19,179.049c-2.008-2.845-1.927-11.832.217-13.417,3.463-2.562,18.272-3.149,38.222,1.44-2.148,8.706,2.452,13.269,2.452,13.269Z" transform="translate(484.567 -82.379)" fill="#407bff"/><path d="M-419.1,409.942c1.513.328,3.027.414,3.757-.206a1.459,1.459,0,0,0,.345-1.661,1.655,1.655,0,0,0-.92-1.051c-2.038-.972-6.719.935-6.919,1.017a.361.361,0,0,0-.221.32.356.356,0,0,0,.2.333A19,19,0,0,0-419.1,409.942Zm2.454-2.411a2.051,2.051,0,0,1,.42.137.965.965,0,0,1,.543.611c.191.644-.047.845-.127.912-.811.691-3.823.054-5.947-.8C-420.32,407.889-417.99,407.241-416.649,407.53Z" transform="translate(447.431 196.053)" fill="#407bff"/><path d="M-422.781,410.912a.35.35,0,0,0,.176-.006c1.708-.5,5.357-3.092,5.4-4.8a1.168,1.168,0,0,0-.916-1.156,1.947,1.947,0,0,0-1.583.127c-2.017,1.028-3.291,5.209-3.345,5.385a.359.359,0,0,0,.09.356A.367.367,0,0,0-422.781,410.912Zm4.271-5.333a1.416,1.416,0,0,1,.157.043c.442.154.436.371.433.463-.024,1.01-2.433,3.047-4.2,3.87.442-1.208,1.45-3.585,2.742-4.246A1.27,1.27,0,0,1-418.51,405.579Z" transform="translate(447.431 193.861)" fill="#407bff"/><path d="M-366.663,411.357c1.937,0,3.808-.266,4.435-1.137a1.351,1.351,0,0,0-.03-1.562,1.773,1.773,0,0,0-1.133-.835c-2.51-.684-7.784,2.321-8.007,2.45a.358.358,0,0,0-.176.367.359.359,0,0,0,.283.294A26.577,26.577,0,0,0-366.663,411.357Zm2.394-2.926a2.665,2.665,0,0,1,.691.082,1.075,1.075,0,0,1,.7.5c.253.444.161.665.071.792-.7.974-4.516,1-7.322.6C-368.731,409.686-366.032,408.431-364.268,408.431Z" transform="translate(506.4 197.168)" fill="#407bff"/><path d="M-371.22,412.871a.353.353,0,0,0,.146-.032c1.821-.817,5.43-4.081,5.153-5.786-.064-.4-.35-.9-1.33-1a2.606,2.606,0,0,0-1.982.614c-1.92,1.577-2.326,5.64-2.343,5.814a.352.352,0,0,0,.148.324A.368.368,0,0,0-371.22,412.871Zm3.681-6.119a1.808,1.808,0,0,1,.215.013c.644.064.684.317.7.4.165,1.023-2.287,3.587-4.145,4.7.193-1.186.732-3.619,1.993-4.653A1.9,1.9,0,0,1-367.538,406.752Z" transform="translate(506.401 195.239)" fill="#407bff"/><path d="M-379.146,427.713h15.09l1.5-34.946h-15.09Z" transform="translate(497.732 180.039)" fill="#ff8b7b"/><path d="M-430.771,423.177l14.748,3.193,14.808-32.549-14.748-3.193Z" transform="translate(438.601 177.588)" fill="#ff8b7b"/><path d="M-410.425,408.529l-16.569-3.587a1.316,1.316,0,0,0-1.474.736l-5.752,12.478a2.22,2.22,0,0,0,1.592,3.092c5.805,1.152,8.689,1.422,15.977,3,4.482.97,14.6,3.435,20.793,4.776,6.054,1.311,8.324-4.606,5.911-5.709-10.826-4.945-15.35-9.3-18.279-13.359A3.669,3.669,0,0,0-410.425,408.529Z" transform="translate(434.421 193.949)" fill="#263238"/><path d="M-361.053,408.242h-16.481a1.315,1.315,0,0,0-1.283,1.03l-2.982,13.413a2.194,2.194,0,0,0,2.171,2.684c5.945-.1,14.535-.448,22.005-.448,8.738,0,16.281.476,26.528.476,6.2,0,7.914-6.262,5.321-6.831-11.8-2.581-21.443-2.858-31.645-9.148A6.977,6.977,0,0,0-361.053,408.242Z" transform="translate(494.631 197.763)" fill="#263238"/><g transform="translate(46.78 92.292)"><path d="M-386.813,169.2c-14.142,3.244-25.8,39.349-25.8,39.349l28.4,21.647s10.424-9.828,15.063-27.888C-364.291,183.382-372.351,165.884-386.813,169.2Z" transform="translate(412.616 -168.793)" fill="#407bff"/><path d="M-386.813,169.2c-14.142,3.244-25.8,39.349-25.8,39.349l28.4,21.647s10.424-9.828,15.063-27.888C-364.291,183.382-372.351,165.884-386.813,169.2Z" transform="translate(412.616 -168.793)" fill="#fff" opacity="0.4"/></g><path d="M-352.679,177.011l23.831,21.924q5.944,5.48,11.928,10.823c3.952,3.559,7.99,7.131,11.817,10.227l-3.317-1.781c1.845.671,3.778,1.341,5.808,1.884,2.038.526,4.151.993,6.307,1.425,4.336.781,8.86,1.354,13.475,1.725,4.617.395,9.326.641,14.082.775,4.722.167,9.652.234,14.295.268l2.255,11.1a113.05,113.05,0,0,1-15.02,4.379,130.126,130.126,0,0,1-15.475,2.369,107.744,107.744,0,0,1-16.078.217,75.064,75.064,0,0,1-16.79-2.879l-1.626-.478-1.691-1.3c-4.709-3.628-8.891-7.172-13.1-10.781q-6.256-5.429-12.362-10.914c-8.1-7.389-16.14-14.724-24.031-22.344Z" transform="translate(510.071 -67.087)" fill="#ff8b7b"/><path d="M-389.182,181.358c-7.683,7.6-10.188,21.445-10.783,33.483l1.253.965s10.435-9.839,15.076-27.894c.287-1.131.534-2.261.74-3.37Z" transform="translate(473.886 -62.108)" opacity="0.2"/><g transform="translate(72.582 88.783)"><path d="M-311.214,186.2c3.083,16.3,5.014,49.78-3.941,116.076h-80.712c-.556-12.39,7.228-72.83-4.722-131.208a210.536,210.536,0,0,1,27.019-3.411c10.313-.5,25.245-.826,34.311,0,3.784.348,7.5.892,10.809,1.478A21.358,21.358,0,0,1-311.214,186.2Z" transform="translate(400.589 -167.157)" fill="#407bff"/><path d="M-311.214,186.2c3.083,16.3,5.014,49.78-3.941,116.076h-80.712c-.556-12.39,7.228-72.83-4.722-131.208a210.536,210.536,0,0,1,27.019-3.411c10.313-.5,25.245-.826,34.311,0,3.784.348,7.5.892,10.809,1.478A21.358,21.358,0,0,1-311.214,186.2Z" transform="translate(400.589 -167.157)" fill="#fff" opacity="0.4"/></g><path d="M-364.655,189.131l14.584-3.493c.451,8.833.493,19.783-.165,33.318C-356.953,211.314-365.517,199.4-364.655,189.131Z" transform="translate(514.261 -57.206)" opacity="0.2"/><g transform="translate(14.99 568.225)"><path d="M-362.941,392.772l-.772,18.013h-15.1l.772-18.013Z" transform="translate(483.127 -388.181)" opacity="0.2"/><path d="M-419.794,390.632l14.754,3.194-7.64,16.776-14.754-3.194Z" transform="translate(427.434 -390.632)" opacity="0.2"/></g><path d="M-388.967,158.012c3.877,14.466,5.411,23.13,14.338,29.145,13.428,9.047,30.147-1.337,30.668-16.67.472-13.8-5.947-35.137-21.471-38.053A20.426,20.426,0,0,0-388.967,158.012Z" transform="translate(485.648 -118.578)" fill="#ff8b7b"/><path d="M-344.674,166.307c6.771-.955,4.836-8.794,2.293-12.621,0,0,15.121-18.131-2.293-25.459s-13.123,4.111-13.123,4.111-13.582-10.191-25.384-1.965-1.611,11.8-1.611,11.8-21.493,6.318-12.892,17.193,17.44,9.762,17.44,9.762-17.779,7.013-4.19,14.88,18.566,8.23,18.566,8.23h0a15.4,15.4,0,0,0,16.648-10.843Z" transform="translate(474.171 -125.774)" fill="#263238"/><path d="M-376.768,148.043a16.928,16.928,0,0,0,4.239,10.008c3.291,3.626,6.724,1.369,7.305-3.046.526-3.973-.554-10.645-4.576-12.645C-373.762,140.391-377.034,143.566-376.768,148.043Z" transform="translate(500.439 -107.459)" fill="#ff8b7b"/><path d="M-310.558,230.14s-17.127,115.324-26.528,158.525c-10.3,47.312-65.5,203.842-65.5,203.842l-27.013-5.848s38.6-127.561,47.244-193.7c6.638-50.807,19.716-162.816,19.716-162.816Z" transform="translate(439.943 -6.234)" fill="#263238"/><path d="M-395.079,398.018c.116.024-5.035,9.768-5.035,9.768l-30.392-6.58,2.562-9.137Z" transform="translate(438.905 179.239)" fill="#407bff"/><path d="M-370.179,249.374c-19.8,3.883-17.708,77.728-15.325,115.71,5.711-26.847,14.072-78.509,19.781-115.175A6.768,6.768,0,0,0-370.179,249.374Z" transform="translate(488.742 15.621)" opacity="0.3"/><path d="M-332.441,230.14s2.079,112.826.438,158.845c-1.708,47.864-18.427,204.589-18.427,204.589h-25.562s-.94-153.928-2.077-200.938c-1.24-51.247-7.427-162.5-7.427-162.5Z" transform="translate(490.458 -6.234)" fill="#263238"/><path d="M-349.039,394.8c.118,0-1.442,10.613-1.442,10.613h-31.1l-.841-9.472Z" transform="translate(493.985 182.362)" fill="#407bff"/><g transform="translate(129.499 90.876)"><path d="M-373.23,190.036c-7.236,19.5,35.272,42.468,35.272,42.468l18.4-23.659s-12.276-24.438-27.343-35.453C-365.511,159.784-367.723,175.192-373.23,190.036Z" transform="translate(374.059 -168.133)" fill="#407bff"/><path d="M-373.23,190.036c-7.236,19.5,35.272,42.468,35.272,42.468l18.4-23.659s-12.276-24.438-27.343-35.453C-365.511,159.784-367.723,175.192-373.23,190.036Z" transform="translate(374.059 -168.133)" fill="#fff" opacity="0.4"/></g><ellipse cx="5.274" cy="3.963" rx="5.274" ry="3.963" transform="translate(247.184 155.49)" fill="#263238"/><path d="M-317.131,212.175a1.066,1.066,0,0,1-.822-.382,1.074,1.074,0,0,1,.122-1.506c.137-.12,2.881-2.626,1.7-8.446a1.078,1.078,0,0,1,.839-1.266,1.082,1.082,0,0,1,1.266.841c1.45,7.155-2.257,10.373-2.416,10.508A1.068,1.068,0,0,1-317.131,212.175Z" transform="translate(567.534 -40.118)" fill="#263238"/><path d="M-310.171,201.533c0,1.622-1.918,2.935-4.287,2.935s-4.286-1.313-4.286-2.935,1.918-2.937,4.286-2.937S-310.171,199.909-310.171,201.533Z" transform="translate(566.916 -42.364)" fill="#fff" opacity="0.4"/><path d="M-341,167.524c-9.882,7.054-26.978,34.333-30.136,50.436a.534.534,0,0,1-.978.18,110.06,110.06,0,0,1-16.118-49.919.513.513,0,0,0-.566-.491,68.592,68.592,0,0,0-7.179.884.533.533,0,0,0-.4.545c1.283,30.43,16.6,53.7,22.567,60.85a.473.473,0,0,1,.114.35c-1.322,24.144.427,67.28.644,72.418a.528.528,0,0,0,.532.5h6.406a.521.521,0,0,0,.532-.549c-.285-4.949-2.3-42.427.03-73.164l.006-.06c3.613-22.876,25.307-53.783,32.921-59.912a.522.522,0,0,0-.219-.918c-3.22-.708-6.925-1.148-7.8-1.246A.493.493,0,0,0-341,167.524Z" transform="translate(477.993 -78.066)" fill="#407bff"/></g></g></g></svg>