<svg xmlns="http://www.w3.org/2000/svg" width="64" height="64" viewBox="0 0 64 64"><g transform="translate(1481 -365)"><rect width="64" height="64" transform="translate(-1481 365)" fill="none"/><g transform="translate(-1474.47 367.032)"><g transform="translate(0 0)"><g transform="translate(1.361 0.967)"><path d="M-294.6,116.523a2.3,2.3,0,0,0-2.324-2.49h-38.238a2.7,2.7,0,0,0-2.655,2.49l-.878,13.235-5.506,40.728a2.126,2.126,0,0,0,2.153,2.49h38.238a2.941,2.941,0,0,0,2.826-2.49l5.506-40.728Z" transform="translate(344.225 -114.033)" fill="#407bff"/><path d="M-294.6,116.523a2.3,2.3,0,0,0-2.324-2.49h-38.238a2.7,2.7,0,0,0-2.655,2.49l-.878,13.235-5.506,40.728a2.126,2.126,0,0,0,2.153,2.49h38.238a2.941,2.941,0,0,0,2.826-2.49l5.506-40.728Z" transform="translate(344.225 -114.033)" fill="#163988" opacity="0.2"/></g><path d="M-308.739,214.178h-38.238a2.126,2.126,0,0,1-2.153-2.49l5.506-40.728h43.217l-5.506,40.728A2.942,2.942,0,0,1-308.739,214.178Z" transform="translate(349.153 -154.27)" fill="#567ed9"/><rect width="5.695" height="0.276" transform="translate(10.411 0)" fill="#407bff"/><path d="M-321.514,111.1l-.114-.252a3.507,3.507,0,0,1,1.458-.318v.276A3.23,3.23,0,0,0-321.514,111.1Z" transform="translate(329.231 -110.533)" fill="#407bff"/><path d="M-287.368,114.033h-38.238a2.7,2.7,0,0,0-2.655,2.49l-.878,13.235h43.217l.877-13.235A2.3,2.3,0,0,0-287.368,114.033Z" transform="translate(334.666 -113.066)" fill="#567ed9"/><path d="M-321.416,131.559l.614-9.261a1.422,1.422,0,0,1,1.4-1.311h36.754a1.211,1.211,0,0,1,1.224,1.311l-.614,9.261a1.421,1.421,0,0,1-1.4,1.311h-36.754A1.211,1.211,0,0,1-321.416,131.559Z" transform="translate(329.079 -118.099)" fill="#fff" opacity="0.9"/><g transform="translate(40.09 4.211)" opacity="0.4"><path d="M-198.985,125.973l-.417.389a.112.112,0,0,1-.077.03H-201.7a.112.112,0,0,1-.083-.036l-.359-.389a.113.113,0,0,1,.083-.189h2.992A.113.113,0,0,1-198.985,125.973Z" transform="translate(202.677 -125.777)" fill="#407bff"/><path d="M-200.906,150.859H-203.9a.113.113,0,0,1-.077-.2l.416-.389a.112.112,0,0,1,.077-.03h2.216a.114.114,0,0,1,.083.036l.36.389A.113.113,0,0,1-200.906,150.859Z" transform="translate(204.011 -143.486)" fill="#407bff"/><path d="M-199.568,138.4l-.215.2a.113.113,0,0,1-.077.03h-2.592a.113.113,0,0,1-.113-.121l.028-.389a.113.113,0,0,1,.113-.1h2.6a.113.113,0,0,1,.083.036l.175.189A.113.113,0,0,1-199.568,138.4Z" transform="translate(202.965 -134.631)" fill="#407bff"/><path d="M-192.539,139.849l-.219,3a.113.113,0,0,1-.2.068l-.358-.389a.112.112,0,0,1-.03-.085l.162-2.223a.114.114,0,0,1,.036-.074l.415-.388A.113.113,0,0,1-192.539,139.849Z" transform="translate(196.288 -135.874)" fill="#407bff"/><path d="M-191.6,127.005l-.218,3a.113.113,0,0,1-.2.068l-.358-.389a.114.114,0,0,1-.03-.085l.162-2.223a.112.112,0,0,1,.035-.074l.415-.388A.113.113,0,0,1-191.6,127.005Z" transform="translate(195.611 -126.578)" fill="#407bff"/></g><path d="M-207.993,155.948h0a.418.418,0,0,1,.41-.384h4.69a.4.4,0,0,1,.4.425h0a.417.417,0,0,1-.41.383h-4.69A.394.394,0,0,1-207.993,155.948Z" transform="translate(246.984 -143.126)" fill="#407bff" opacity="0.4"/><path d="M-229.253,155.948h0a.418.418,0,0,1,.41-.384h4.69a.4.4,0,0,1,.4.425h0a.418.418,0,0,1-.41.383h-4.69A.394.394,0,0,1-229.253,155.948Z" transform="translate(262.371 -143.126)" fill="#407bff" opacity="0.4"/><path d="M-250.512,155.948h0a.418.418,0,0,1,.41-.384h4.69a.4.4,0,0,1,.4.425h0a.418.418,0,0,1-.41.383h-4.69A.4.4,0,0,1-250.512,155.948Z" transform="translate(277.759 -143.126)" fill="#407bff" opacity="0.4"/><path d="M-271.772,155.948h0a.418.418,0,0,1,.41-.384h4.69a.4.4,0,0,1,.4.425h0a.417.417,0,0,1-.41.383h-4.69A.4.4,0,0,1-271.772,155.948Z" transform="translate(293.147 -143.126)" fill="#407bff" opacity="0.4"/><path d="M-318.753,201.866l1.728-12.782a1.811,1.811,0,0,1,1.739-1.532H-302.5a1.309,1.309,0,0,1,1.325,1.532l-1.728,12.782a1.81,1.81,0,0,1-1.739,1.532h-12.782A1.308,1.308,0,0,1-318.753,201.866Z" transform="translate(327.16 -166.278)" fill="#263238" opacity="0.1"/><path d="M-252.841,201.866l1.728-12.782a1.811,1.811,0,0,1,1.739-1.532h12.782a1.308,1.308,0,0,1,1.325,1.532l-1.728,12.782a1.811,1.811,0,0,1-1.739,1.532h-12.782A1.308,1.308,0,0,1-252.841,201.866Z" transform="translate(279.454 -166.278)" fill="#263238" opacity="0.1"/><path d="M-327.662,267.777l1.728-12.782a1.81,1.81,0,0,1,1.739-1.532h12.782a1.308,1.308,0,0,1,1.325,1.532l-1.728,12.782a1.81,1.81,0,0,1-1.739,1.532h-12.782A1.308,1.308,0,0,1-327.662,267.777Z" transform="translate(333.608 -213.984)" fill="#263238" opacity="0.1"/><path d="M-261.751,267.777l1.728-12.782a1.81,1.81,0,0,1,1.739-1.532H-245.5a1.308,1.308,0,0,1,1.325,1.532l-1.728,12.782a1.81,1.81,0,0,1-1.739,1.532h-12.782A1.308,1.308,0,0,1-261.751,267.777Z" transform="translate(285.903 -213.984)" fill="#263238" opacity="0.1"/><g transform="translate(7.543 21.273)"><path d="M-321.832,201.866l1.728-12.782a1.811,1.811,0,0,1,1.739-1.532h12.782a1.309,1.309,0,0,1,1.325,1.532l-1.728,12.782a1.81,1.81,0,0,1-1.739,1.532h-12.782A1.308,1.308,0,0,1-321.832,201.866Z" transform="translate(321.846 -187.551)" fill="#407bff"/><path d="M-321.832,201.866l1.728-12.782a1.811,1.811,0,0,1,1.739-1.532h12.782a1.309,1.309,0,0,1,1.325,1.532l-1.728,12.782a1.81,1.81,0,0,1-1.739,1.532h-12.782A1.308,1.308,0,0,1-321.832,201.866Z" transform="translate(321.846 -187.551)" fill="#fff" opacity="0.2"/></g><g transform="translate(25.748 21.273)"><path d="M-255.921,201.866l1.728-12.782a1.811,1.811,0,0,1,1.739-1.532h12.782a1.308,1.308,0,0,1,1.325,1.532l-1.728,12.782a1.811,1.811,0,0,1-1.739,1.532H-254.6A1.308,1.308,0,0,1-255.921,201.866Z" transform="translate(255.935 -187.551)" fill="#407bff"/><path d="M-255.921,201.866l1.728-12.782a1.811,1.811,0,0,1,1.739-1.532h12.782a1.308,1.308,0,0,1,1.325,1.532l-1.728,12.782a1.811,1.811,0,0,1-1.739,1.532H-254.6A1.308,1.308,0,0,1-255.921,201.866Z" transform="translate(255.935 -187.551)" fill="#fff" opacity="0.2"/></g><g transform="translate(5.082 39.479)"><path d="M-330.742,267.777l1.728-12.782a1.811,1.811,0,0,1,1.739-1.532h12.782a1.308,1.308,0,0,1,1.325,1.532l-1.728,12.782a1.81,1.81,0,0,1-1.739,1.532h-12.782A1.308,1.308,0,0,1-330.742,267.777Z" transform="translate(330.756 -253.463)" fill="#407bff"/><path d="M-330.742,267.777l1.728-12.782a1.811,1.811,0,0,1,1.739-1.532h12.782a1.308,1.308,0,0,1,1.325,1.532l-1.728,12.782a1.81,1.81,0,0,1-1.739,1.532h-12.782A1.308,1.308,0,0,1-330.742,267.777Z" transform="translate(330.756 -253.463)" fill="#fff" opacity="0.2"/></g><g transform="translate(23.287 39.479)"><path d="M-264.831,267.777l1.728-12.782a1.81,1.81,0,0,1,1.739-1.532h12.782a1.308,1.308,0,0,1,1.325,1.532l-1.728,12.782a1.81,1.81,0,0,1-1.739,1.532h-12.782A1.308,1.308,0,0,1-264.831,267.777Z" transform="translate(264.845 -253.463)" fill="#407bff"/><path d="M-264.831,267.777l1.728-12.782a1.81,1.81,0,0,1,1.739-1.532h12.782a1.308,1.308,0,0,1,1.325,1.532l-1.728,12.782a1.81,1.81,0,0,1-1.739,1.532h-12.782A1.308,1.308,0,0,1-264.831,267.777Z" transform="translate(264.845 -253.463)" fill="#fff" opacity="0.2"/></g><g transform="translate(9.299 23.878)"><path d="M-296.1,207.619h0a1.314,1.314,0,0,1-1.327-1.534l1.023-7.569a1.819,1.819,0,0,1,1.742-1.534h0a1.313,1.313,0,0,1,1.327,1.534l-1.023,7.569A1.819,1.819,0,0,1-296.1,207.619Z" transform="translate(302.425 -196.982)" fill="#fff"/><path d="M-309.274,212.216h0a1.819,1.819,0,0,1,1.742-1.534h7.568a1.314,1.314,0,0,1,1.327,1.534h0a1.819,1.819,0,0,1-1.742,1.534h-7.569A1.313,1.313,0,0,1-309.274,212.216Z" transform="translate(311 -206.898)" fill="#fff"/><path d="M-315.173,274.882h0a1.57,1.57,0,0,1,.293-2.17l6.075-5.352a1.536,1.536,0,0,1,2.17,0h0a1.57,1.57,0,0,1-.293,2.169L-313,274.882A1.536,1.536,0,0,1-315.173,274.882Z" transform="translate(315.488 -247.597)" fill="#fff"/><path d="M-312.261,267.36h0a1.536,1.536,0,0,1,2.169,0l4.629,5.352a1.57,1.57,0,0,1-.293,2.17h0a1.536,1.536,0,0,1-2.17,0l-4.628-5.352A1.57,1.57,0,0,1-312.261,267.36Z" transform="translate(313.593 -247.597)" fill="#fff"/><path d="M-243.363,212.216h0a1.819,1.819,0,0,1,1.742-1.534h7.569a1.313,1.313,0,0,1,1.327,1.534h0a1.819,1.819,0,0,1-1.742,1.534h-7.569A1.314,1.314,0,0,1-243.363,212.216Z" transform="translate(263.295 -206.898)" fill="#fff"/><path d="M-251.105,269.494h0a1.818,1.818,0,0,1,1.741-1.534h7.569a1.313,1.313,0,0,1,1.327,1.534h0a1.819,1.819,0,0,1-1.741,1.534h-7.569A1.314,1.314,0,0,1-251.105,269.494Z" transform="translate(268.899 -248.355)" fill="#fff"/><path d="M-253.44,286.762h0a1.819,1.819,0,0,1,1.742-1.534h7.569a1.313,1.313,0,0,1,1.327,1.534h0a1.819,1.819,0,0,1-1.742,1.534h-7.569A1.314,1.314,0,0,1-253.44,286.762Z" transform="translate(270.588 -260.853)" fill="#fff"/></g></g></g></g></svg>